<?xml version="1.0" encoding="utf-8"?>
<!-- Generator: Adobe Illustrator 18.1.1, SVG Export Plug-In . SVG Version: 6.00 Build 0)  -->
<!DOCTYPE svg PUBLIC "-//W3C//DTD SVG 1.1//EN" "http://www.w3.org/Graphics/SVG/1.1/DTD/svg11.dtd">
<svg version="1.1" id="Calque_1" xmlns="http://www.w3.org/2000/svg" xmlns:xlink="http://www.w3.org/1999/xlink" x="0px" y="0px"
	 viewBox="0 0 80 80" enable-background="new 0 0 80 80" xml:space="preserve">
<path fill="#F5D84C" d="M49.5234,62.4409c-1.9091-5.2158-5.5817-1.8969-7.6643-6.6986c-0.2296-0.5294-0.3916-1.5476-0.6779-2.4042
	c-1.3919-5.4123-0.2382-12.5506-0.2382-12.5506l-0.0004,0c1.5157-2.4669,3.844-8.9186,4.6034-11.4668
	c1.12-3.7577,3.0127-5.4172,3.0127-5.4172l1.0124-3.1152l0.3471-1.7945c0,0-6.4302,3.4672-9.9184,1.1715
	c-3.6682-2.4142-9.9676-2.0079-10.0543-1.4873c-0.1736,1.0413,0.2715-0.6134,2.1806,4.6025s1.594,2.903,3.6766,7.7046
	c0.4424,1.0199,1.9378,7.6001,3.3143,9.9498l-0.0006,0c0.1165,9.4605-1.751,13.0235-1.751,13.0235l0.0004,0
	c-0.3256,0.6272-0.6381,1.4347-0.9169,2.4752c-1.0149,3.7875-6.8843,4.4545-6.8843,4.4545l-1.0992,3.9339l1.0992,3.0661
	l6.0165,7.6942l3.6446,3.4132l1.6777-1.6199l4.1653-4.2814c0,0,4.5703-5.6112,4.7438-6.6525
	C49.9862,65.4006,51.4325,67.6568,49.5234,62.4409z"/>
<path fill="#FFFFFF" d="M40.688,2.0826l9.9835,12.5985l-9.467,25.3408l8.5415,25.6675L39.312,77.9174l-9.9835-12.5985l9.467-25.3408
	L30.254,14.3106L40.688,2.0826 M40.6879,0c-0.609,0-1.1881,0.2666-1.5842,0.7308l-10.434,12.228
	c-0.4735,0.555-0.6222,1.3172-0.3919,2.0094l8.3093,24.9699L27.3775,64.59c-0.2553,0.6834-0.1344,1.4506,0.3187,2.0223
	l9.9835,12.5985c0.3868,0.4881,0.9717,0.7775,1.5944,0.7888C39.2868,79.9999,39.2995,80,39.3121,80
	c0.609,0,1.1881-0.2666,1.5842-0.7308l10.4341-12.228c0.4735-0.555,0.6222-1.3172,0.3919-2.0095l-8.3094-24.9699l9.2097-24.652
	c0.2553-0.6834,0.1344-1.4506-0.3187-2.0223L42.3203,0.7892c-0.3868-0.4881-0.9717-0.7775-1.5944-0.7888
	C40.7132,0.0001,40.7005,0,40.6879,0L40.6879,0z"/>
</svg>
