<?xml version="1.0" encoding="utf-8"?>
<!-- Generator: Adobe Illustrator 18.1.1, SVG Export Plug-In . SVG Version: 6.00 Build 0)  -->
<!DOCTYPE svg PUBLIC "-//W3C//DTD SVG 1.1//EN" "http://www.w3.org/Graphics/SVG/1.1/DTD/svg11.dtd">
<svg version="1.1" id="Layer_1" xmlns="http://www.w3.org/2000/svg" xmlns:xlink="http://www.w3.org/1999/xlink" x="0px" y="0px"
	 viewBox="0 0 115.8447 102.5499" enable-background="new 0 0 115.8447 102.5499" xml:space="preserve">
<g>
	<path fill="#F7C332" stroke="#EC812A" stroke-width="2" stroke-miterlimit="10" d="M85.8056,1.645
		c6.5142,3.6601,6.6784,29.132,6.6784,29.132s22.2736,12.3594,22.3604,19.8306c0.0879,7.4717-21.8903,20.3493-21.8903,20.3493
		s0.4332,25.469-5.9931,29.2803c-6.4266,3.8123-28.5684-8.7819-28.5684-8.7819s-21.8394,13.1085-28.3536,9.4498
		c-6.5139-3.6609-6.6779-29.1324-6.6779-29.1324S1.0875,59.4128,1.0003,51.9426c-0.0877-7.4722,21.8903-20.35,21.8903-20.35
		S22.4568,6.1234,28.8837,2.3121c6.4262-3.8113,28.5685,8.7831,28.5685,8.7831S79.2914-2.0151,85.8056,1.645z"/>
</g>
<text transform="matrix(1 0 0 1 31.6193 54.7229)" fill="#FFFFFF" font-family="'OpenSans-Semibold'" font-size="12">rapidité</text>
</svg>
